{"accessors":[{"bufferView":0,"componentType":5126,"count":90,"max":[0.5230811238288879,0.3499999940395355,0.550000011920929],"min":[-0.5230810642242432,-0.3499999940395355,-0.550000011920929],"normalized":false,"type":"VEC3"},{"bufferView":1,"componentType":5126,"count":90,"max":[1.0,0.0,0.9510593414306641,1.0],"min":[-1.0,-2.1313815523171797e-05,-0.9510536193847656,1.0],"normalized":false,"type":"VEC4"},{"bufferView":2,"componentType":5126,"count":90,"max":[0.9035424590110779,1.0,0.9500342607498169],"min":[-0.9035539627075195,-1.0,-0.9500285387039185],"normalized":false,"type":"VEC3"},{"bufferView":3,"componentType":5126,"count":90,"max":[1.0,1.0],"min":[0.0,0.0],"normalized":false,"type":"VEC2"},{"bufferView":4,"componentType":5121,"count":360,"max":[89],"min":[0],"normalized":false,"type":"SCALAR"},{"bufferView":5,"componentType":5126,"count":90,"max":[0.30433809757232666,3.0,0.3199999928474426],"min":[-0.3043380677700043,-3.0,-0.3199999928474426],"normalized":false,"type":"VEC3"},{"bufferView":6,"componentType":5126,"count":90,"max":[0.950432300567627,1.0,0.9993290305137634],"min":[-0.9504220485687256,-1.0,-0.9993284940719604],"normalized":false,"type":"VEC3"},{"bufferView":7,"componentType":5126,"count":106,"max":[2.144841432571411,1.0,2.200000047683716],"min":[-2.1448416709899902,-1.0,-2.200000047683716],"normalized":false,"type":"VEC3"},{"bufferView":8,"componentType":5126,"count":106,"max":[1.0,0.0,0.974933385848999,1.0],"min":[-1.0,-2.1443969671963714e-05,-0.9749197363853455,1.0],"normalized":false,"type":"VEC4"},{"bufferView":9,"componentType":5126,"count":106,"max":[0.6558051705360413,0.739975094795227,0.6726803183555603],"min":[-0.6558300852775574,-1.0,-0.6726695895195007],"normalized":false,"type":"VEC3"},{"bufferView":10,"componentType":5126,"count":106,"max":[1.0,1.0],"min":[0.0,0.0],"normalized":false,"type":"VEC2"},{"bufferView":11,"componentType":5121,"count":462,"max":[105],"min":[0],"normalized":false,"type":"SCALAR"},{"bufferView":12,"componentType":5126,"count":106,"max":[1.8133659362792969,0.8999999761581421,1.8600000143051147],"min":[-1.8133660554885864,-0.8999999761581421,-1.8600000143051147],"normalized":false,"type":"VEC3"},{"bufferView":13,"componentType":5126,"count":106,"max":[0.6780019998550415,0.718630313873291,0.6954469680786133],"min":[-0.6780325770378113,-1.0,-0.6953923106193542],"normalized":false,"type":"VEC3"},{"bufferView":14,"componentType":5126,"count":106,"max":[1.4818904399871826,0.800000011920929,1.5199999809265137],"min":[-1.4818904399871826,-0.800000011920929,-1.5199999809265137],"normalized":false,"type":"VEC3"},{"bufferView":15,"componentType":5126,"count":106,"max":[0.7068421244621277,0.6887993812561035,0.7249957323074341],"min":[-0.7068598866462708,-1.0,-0.7249849438667297],"normalized":false,"type":"VEC3"},{"bufferView":16,"componentType":5126,"count":106,"max":[1.1504148244857788,0.699999988079071,1.1799999475479126],"min":[-1.1504149436950684,-0.699999988079071,-1.1799999475479126],"normalized":false,"type":"VEC3"},{"bufferView":17,"componentType":5126,"count":106,"max":[0.7454617619514465,0.6445151567459106,0.764626145362854],"min":[-0.745478630065918,-1.0,-0.764615535736084],"normalized":false,"type":"VEC3"},{"bufferView":18,"componentType":5126,"count":106,"max":[0.8189393877983093,0.6000000238418579,0.8399999737739563],"min":[-0.8189394474029541,-0.6000000238418579,-0.8399999737739563],"normalized":false,"type":"VEC3"},{"bufferView":19,"componentType":5126,"count":106,"max":[0.7987019419670105,0.5735085606575012,0.8192588686943054],"min":[-0.7987167239189148,-1.0,-0.819214940071106],"normalized":false,"type":"VEC3"},{"bufferView":20,"componentType":5126,"count":106,"max":[0.48746395111083984,0.5,0.5],"min":[-0.48746398091316223,-0.5,-0.5],"normalized":false,"type":"VEC3"},{"bufferView":21,"componentType":5126,"count":106,"max":[0.872002363204956,0.4472656548023224,0.8944230675697327],"min":[-0.8720169067382813,-1.0,-0.8944149017333984],"normalized":false,"type":"VEC3"}],"asset":{"generator":"Godot Engine v4.6.3.stable.arch_linux@35e80b3a8822a9df9be390814b62f44c0a9c69e8","version":"2.0"},"bufferViews":[{"buffer":0,"byteLength":1080,"byteStride":12,"target":34962},{"buffer":0,"byteLength":1440,"byteOffset":1080,"byteStride":16,"target":34962},{"buffer":0,"byteLength":1080,"byteOffset":2520,"byteStride":12,"target":34962},{"buffer":0,"byteLength":720,"byteOffset":3600,"byteStride":8,"target":34962},{"buffer":0,"byteLength":360,"byteOffset":4320,"target":34963},{"buffer":0,"byteLength":1080,"byteOffset":4680,"byteStride":12,"target":34962},{"buffer":0,"byteLength":1080,"byteOffset":5760,"byteStride":12,"target":34962},{"buffer":0,"byteLength":1272,"byteOffset":6840,"byteStride":12,"target":34962},{"buffer":0,"byteLength":1696,"byteOffset":8112,"byteStride":16,"target":34962},{"buffer":0,"byteLength":1272,"byteOffset":9808,"byteStride":12,"target":34962},{"buffer":0,"byteLength":848,"byteOffset":11080,"byteStride":8,"target":34962},{"buffer":0,"byteLength":462,"byteOffset":11928,"target":34963},{"buffer":0,"byteLength":1272,"byteOffset":12392,"byteStride":12,"target":34962},{"buffer":0,"byteLength":1272,"byteOffset":13664,"byteStride":12,"target":34962},{"buffer":0,"byteLength":1272,"byteOffset":14936,"byteStride":12,"target":34962},{"buffer":0,"byteLength":1272,"byteOffset":16208,"byteStride":12,"target":34962},{"buffer":0,"byteLength":1272,"byteOffset":17480,"byteStride":12,"target":34962},{"buffer":0,"byteLength":1272,"byteOffset":18752,"byteStride":12,"target":34962},{"buffer":0,"byteLength":1272,"byteOffset":20024,"byteStride":12,"target":34962},{"buffer":0,"byteLength":1272,"byteOffset":21296,"byteStride":12,"target":34962},{"buffer":0,"byteLength":1272,"byteOffset":22568,"byteStride":12,"target":34962},{"buffer":0,"byteLength":1272,"byteOffset":23840,"byteStride":12,"target":34962}],"buffers":[{"byteLength":25112,"uri":"realistic_pine_tree0.bin"}],"extensionsUsed":["GODOT_single_root"],"materials":[{"pbrMetallicRoughness":{"baseColorFactor":[0.03968190401792526,0.017389100044965744,0.0071944077499210835,1.0],"metallicFactor":0.0,"roughnessFactor":0.8999999761581421}},{"pbrMetallicRoughness":{"baseColorFactor":[0.013411746360361576,0.07323895394802094,0.017389100044965744,1.0],"metallicFactor":0.0,"roughnessFactor":0.8199999928474426}},{"pbrMetallicRoughness":{"baseColorFactor":[0.00598105788230896,0.03968190401792526,0.011645428836345673,1.0],"metallicFactor":0.0,"roughnessFactor":0.8799999952316284}}],"meshes":[{"primitives":[{"attributes":{"NORMAL":2,"POSITION":0,"TANGENT":1,"TEXCOORD_0":3},"indices":4,"material":0,"mode":4}]},{"primitives":[{"attributes":{"NORMAL":6,"POSITION":5,"TANGENT":1,"TEXCOORD_0":3},"indices":4,"material":0,"mode":4}]},{"primitives":[{"attributes":{"NORMAL":9,"POSITION":7,"TANGENT":8,"TEXCOORD_0":10},"indices":11,"material":1,"mode":4}]},{"primitives":[{"attributes":{"NORMAL":13,"POSITION":12,"TANGENT":8,"TEXCOORD_0":10},"indices":11,"material":2,"mode":4}]},{"primitives":[{"attributes":{"NORMAL":15,"POSITION":14,"TANGENT":8,"TEXCOORD_0":10},"indices":11,"material":1,"mode":4}]},{"primitives":[{"attributes":{"NORMAL":17,"POSITION":16,"TANGENT":8,"TEXCOORD_0":10},"indices":11,"material":2,"mode":4}]},{"primitives":[{"attributes":{"NORMAL":19,"POSITION":18,"TANGENT":8,"TEXCOORD_0":10},"indices":11,"material":1,"mode":4}]},{"primitives":[{"attributes":{"NORMAL":21,"POSITION":20,"TANGENT":8,"TEXCOORD_0":10},"indices":11,"material":2,"mode":4}]}],"nodes":[{"children":[1,2,3,4,5,6,7,8],"name":"RealisticPineTree"},{"mesh":0,"name":"root_flare","translation":[0.0,0.3499999940395355,0.0]},{"mesh":1,"name":"pine_trunk","translation":[0.0,3.0,0.0]},{"mesh":2,"name":"needle_layer_00","translation":[0.0,1.600000023841858,0.0]},{"mesh":3,"name":"needle_layer_01","translation":[0.0,2.5999999046325684,0.0]},{"mesh":4,"name":"needle_layer_02","translation":[0.0,3.5999999046325684,0.0]},{"mesh":5,"name":"needle_layer_03","translation":[0.0,4.599999904632568,0.0]},{"mesh":6,"name":"needle_layer_04","translation":[0.0,5.599999904632568,0.0]},{"mesh":7,"name":"needle_layer_05","translation":[0.0,6.599999904632568,0.0]}],"scene":0,"scenes":[{"nodes":[0]}]}