{"accessors":[{"bufferView":0,"componentType":5126,"count":106,"max":[0.7200000286102295,0.4000000059604645,0.7200000286102295],"min":[-0.7200000286102295,-0.4000000059604645,-0.7200000286102295],"normalized":false,"type":"VEC3"},{"bufferView":1,"componentType":5126,"count":106,"max":[1.0,0.0,1.0,1.0],"min":[-1.0,-2.084451261907816e-05,-1.0,1.0],"normalized":false,"type":"VEC4"},{"bufferView":2,"componentType":5126,"count":106,"max":[0.9363284111022949,1.0,0.9363284111022949],"min":[-0.9363372325897217,-1.0,-0.9363219141960144],"normalized":false,"type":"VEC3"},{"bufferView":3,"componentType":5126,"count":106,"max":[1.0,1.0],"min":[0.0,0.0],"normalized":false,"type":"VEC2"},{"bufferView":4,"componentType":5121,"count":432,"max":[105],"min":[0],"normalized":false,"type":"SCALAR"},{"bufferView":5,"componentType":5126,"count":106,"max":[0.41999998688697815,2.5999999046325684,0.41999998688697815],"min":[-0.41999998688697815,-2.5999999046325684,-0.41999998688697815],"normalized":false,"type":"VEC3"},{"bufferView":6,"componentType":5126,"count":106,"max":[0.9992613196372986,1.0,0.9992613196372986],"min":[-0.9992619156837463,-1.0,-0.9992607235908508],"normalized":false,"type":"VEC3"},{"bufferView":7,"componentType":5126,"count":58,"max":[0.10392305254936218,0.8125,0.11999999731779099],"min":[-0.10392305254936218,-0.8125,-0.11999999731779099],"normalized":false,"type":"VEC3"},{"bufferView":8,"componentType":5126,"count":58,"max":[1.0,0.0,0.8660268783569336,1.0],"min":[-1.0,-2.084451261907816e-05,-0.8660179972648621,1.0],"normalized":false,"type":"VEC4"},{"bufferView":9,"componentType":5126,"count":58,"max":[0.8648630380630493,1.0,0.9986352324485779],"min":[-0.864852786064148,-1.0,-0.998634397983551],"normalized":false,"type":"VEC3"},{"bufferView":10,"componentType":5126,"count":58,"max":[1.0,1.0],"min":[0.0,0.0],"normalized":false,"type":"VEC2"},{"bufferView":11,"componentType":5121,"count":216,"max":[57],"min":[0],"normalized":false,"type":"SCALAR"},{"bufferView":12,"componentType":5126,"count":58,"max":[0.10392305254936218,0.7900000214576721,0.11999999731779099],"min":[-0.10392305254936218,-0.7900000214576721,-0.11999999731779099],"normalized":false,"type":"VEC3"},{"bufferView":13,"componentType":5126,"count":58,"max":[0.8647927641868591,1.0,0.9985566139221191],"min":[-0.8647992610931396,-1.0,-0.9985557198524475],"normalized":false,"type":"VEC3"},{"bufferView":14,"componentType":5126,"count":58,"max":[0.10392305254936218,0.7674999833106995,0.11999999731779099],"min":[-0.10392305254936218,-0.7674999833106995,-0.11999999731779099],"normalized":false,"type":"VEC3"},{"bufferView":15,"componentType":5126,"count":58,"max":[0.8647240996360779,1.0,0.9984717965126038],"min":[-0.8647075295448303,-1.0,-0.9984689950942993],"normalized":false,"type":"VEC3"},{"bufferView":16,"componentType":5126,"count":58,"max":[0.10392305254936218,0.7450000047683716,0.11999999731779099],"min":[-0.10392305254936218,-0.7450000047683716,-0.11999999731779099],"normalized":false,"type":"VEC3"},{"bufferView":17,"componentType":5126,"count":58,"max":[0.8646270036697388,1.0,0.9983785152435303],"min":[-0.8646335601806641,-1.0,-0.998375654220581],"normalized":false,"type":"VEC3"},{"bufferView":18,"componentType":5126,"count":58,"max":[0.10392305254936218,0.7225000262260437,0.11999999731779099],"min":[-0.10392305254936218,-0.7225000262260437,-0.11999999731779099],"normalized":false,"type":"VEC3"},{"bufferView":19,"componentType":5126,"count":58,"max":[0.8645603060722351,1.0,0.9982761740684509],"min":[-0.8645437955856323,-1.0,-0.9982731938362122],"normalized":false,"type":"VEC3"},{"bufferView":20,"componentType":5126,"count":58,"max":[0.10392305254936218,0.699999988079071,0.11999999731779099],"min":[-0.10392305254936218,-0.699999988079071,-0.11999999731779099],"normalized":false,"type":"VEC3"},{"bufferView":21,"componentType":5126,"count":58,"max":[0.864450991153717,1.0,0.9981620907783508],"min":[-0.8644411563873291,-1.0,-0.9981611371040344],"normalized":false,"type":"VEC3"},{"bufferView":22,"componentType":5126,"count":58,"max":[0.10392305254936218,0.6775000095367432,0.11999999731779099],"min":[-0.10392305254936218,-0.6775000095367432,-0.11999999731779099],"normalized":false,"type":"VEC3"},{"bufferView":23,"componentType":5126,"count":58,"max":[0.8643414378166199,1.0,0.9980396628379822],"min":[-0.8643480539321899,-1.0,-0.9980365037918091],"normalized":false,"type":"VEC3"},{"bufferView":24,"componentType":5126,"count":58,"max":[0.10392305254936218,0.6549999713897705,0.11999999731779099],"min":[-0.10392305254936218,-0.6549999713897705,-0.11999999731779099],"normalized":false,"type":"VEC3"},{"bufferView":25,"componentType":5126,"count":58,"max":[0.8642174005508423,1.0,0.9979016780853271],"min":[-0.8642241954803467,-1.0,-0.997900664806366],"normalized":false,"type":"VEC3"},{"bufferView":26,"componentType":5126,"count":70,"max":[0.7681499719619751,0.7020000219345093,0.7799999713897705],"min":[-0.7681499719619751,-0.7020000219345093,-0.7329602241516113],"normalized":false,"type":"VEC3"},{"bufferView":27,"componentType":5126,"count":70,"max":[1.0,0.0,0.9848088622093201,1.0],"min":[-0.9397139549255371,-2.1497440684470348e-05,-0.9848057627677917,1.0],"normalized":false,"type":"VEC4"},{"bufferView":28,"componentType":5126,"count":70,"max":[0.9848088622093201,1.0,1.0],"min":[-0.9848159551620483,-1.0,-0.9396906495094299],"normalized":false,"type":"VEC3"},{"bufferView":29,"componentType":5126,"count":70,"max":[1.0,1.0],"min":[0.0,0.0],"normalized":false,"type":"VEC2"},{"bufferView":30,"componentType":5121,"count":324,"max":[69],"min":[0],"normalized":false,"type":"SCALAR"},{"bufferView":31,"componentType":5126,"count":70,"max":[0.6105808019638062,0.5889999866485596,0.6200000047683716],"min":[-0.6105808019638062,-0.5889999866485596,-0.5826094150543213],"normalized":false,"type":"VEC3"},{"bufferView":32,"componentType":5126,"count":70,"max":[0.9848088622093201,1.0,1.0],"min":[-0.9848159551620483,-1.0,-0.9396906495094299],"normalized":false,"type":"VEC3"},{"bufferView":33,"componentType":5126,"count":70,"max":[0.7484538555145264,0.6840000152587891,0.7599999904632568],"min":[-0.7484538555145264,-0.6840000152587891,-0.7141664028167725],"normalized":false,"type":"VEC3"},{"bufferView":34,"componentType":5126,"count":70,"max":[0.5958086848258972,0.5747500061988831,0.6050000190734863],"min":[-0.5958086848258972,-0.5747500061988831,-0.5685140490531921],"normalized":false,"type":"VEC3"},{"bufferView":35,"componentType":5126,"count":70,"max":[0.7287577390670776,0.6660000085830688,0.7400000095367432],"min":[-0.7287577390670776,-0.6660000085830688,-0.6953725218772888],"normalized":false,"type":"VEC3"},{"bufferView":36,"componentType":5126,"count":70,"max":[0.5810365080833435,0.5605000257492065,0.5899999737739563],"min":[-0.5810365080833435,-0.5605000257492065,-0.5544186234474182],"normalized":false,"type":"VEC3"},{"bufferView":37,"componentType":5126,"count":70,"max":[0.7090616226196289,0.6480000019073486,0.7200000286102295],"min":[-0.7090616226196289,-0.6480000019073486,-0.67657870054245],"normalized":false,"type":"VEC3"},{"bufferView":38,"componentType":5126,"count":70,"max":[0.5662644505500793,0.5462499856948853,0.574999988079071],"min":[-0.5662644505500793,-0.5462499856948853,-0.5403232574462891],"normalized":false,"type":"VEC3"},{"bufferView":39,"componentType":5126,"count":70,"max":[0.6893653869628906,0.6299999952316284,0.699999988079071],"min":[-0.6893653869628906,-0.6299999952316284,-0.6577848196029663],"normalized":false,"type":"VEC3"},{"bufferView":40,"componentType":5126,"count":70,"max":[0.5514923334121704,0.5320000052452087,0.5600000023841858],"min":[-0.5514923334121704,-0.5320000052452087,-0.5262278914451599],"normalized":false,"type":"VEC3"},{"bufferView":41,"componentType":5126,"count":70,"max":[0.6696692705154419,0.6119999885559082,0.6800000071525574],"min":[-0.6696692705154419,-0.6119999885559082,-0.6389909982681274],"normalized":false,"type":"VEC3"},{"bufferView":42,"componentType":5126,"count":70,"max":[0.5367202162742615,0.5177500247955322,0.5450000166893005],"min":[-0.5367202162742615,-0.5177500247955322,-0.512132465839386],"normalized":false,"type":"VEC3"},{"bufferView":43,"componentType":5126,"count":70,"max":[0.6499731540679932,0.593999981880188,0.6600000262260437],"min":[-0.6499731540679932,-0.593999981880188,-0.6201971769332886],"normalized":false,"type":"VEC3"},{"bufferView":44,"componentType":5126,"count":70,"max":[0.5219480395317078,0.5034999847412109,0.5299999713897705],"min":[-0.5219480395317078,-0.5034999847412109,-0.49803707003593445],"normalized":false,"type":"VEC3"},{"bufferView":45,"componentType":5126,"count":70,"max":[0.6302769184112549,0.5759999752044678,0.6399999856948853],"min":[-0.6302769184112549,-0.5759999752044678,-0.6014032363891602],"normalized":false,"type":"VEC3"},{"bufferView":46,"componentType":5126,"count":70,"max":[0.5071759819984436,0.4892500042915344,0.5149999856948853],"min":[-0.5071759819984436,-0.4892500042915344,-0.4839416742324829],"normalized":false,"type":"VEC3"},{"bufferView":47,"componentType":5126,"count":70,"max":[1.034048080444336,0.9975000023841858,1.0499999523162842],"min":[-1.034048080444336,-0.9975000023841858,-0.9866772294044495],"normalized":false,"type":"VEC3"},{"bufferView":48,"componentType":5126,"count":70,"max":[0.9191538691520691,0.8866666555404663,0.9333333373069763],"min":[-0.9191538691520691,-0.8866666555404663,-0.8770464658737183],"normalized":false,"type":"VEC3"},{"bufferView":49,"componentType":5126,"count":70,"max":[0.8042596578598022,0.7758333086967468,0.8166666626930237],"min":[-0.8042596578598022,-0.7758333086967468,-0.7674156427383423],"normalized":false,"type":"VEC3"},{"bufferView":50,"componentType":5126,"count":70,"max":[0.6893653869628906,0.6650000214576721,0.699999988079071],"min":[-0.6893653869628906,-0.6650000214576721,-0.6577848196029663],"normalized":false,"type":"VEC3"}],"asset":{"generator":"Godot Engine v4.6.3.stable.arch_linux@35e80b3a8822a9df9be390814b62f44c0a9c69e8","version":"2.0"},"bufferViews":[{"buffer":0,"byteLength":1272,"byteStride":12,"target":34962},{"buffer":0,"byteLength":1696,"byteOffset":1272,"byteStride":16,"target":34962},{"buffer":0,"byteLength":1272,"byteOffset":2968,"byteStride":12,"target":34962},{"buffer":0,"byteLength":848,"byteOffset":4240,"byteStride":8,"target":34962},{"buffer":0,"byteLength":432,"byteOffset":5088,"target":34963},{"buffer":0,"byteLength":1272,"byteOffset":5520,"byteStride":12,"target":34962},{"buffer":0,"byteLength":1272,"byteOffset":6792,"byteStride":12,"target":34962},{"buffer":0,"byteLength":696,"byteOffset":8064,"byteStride":12,"target":34962},{"buffer":0,"byteLength":928,"byteOffset":8760,"byteStride":16,"target":34962},{"buffer":0,"byteLength":696,"byteOffset":9688,"byteStride":12,"target":34962},{"buffer":0,"byteLength":464,"byteOffset":10384,"byteStride":8,"target":34962},{"buffer":0,"byteLength":216,"byteOffset":10848,"target":34963},{"buffer":0,"byteLength":696,"byteOffset":11064,"byteStride":12,"target":34962},{"buffer":0,"byteLength":696,"byteOffset":11760,"byteStride":12,"target":34962},{"buffer":0,"byteLength":696,"byteOffset":12456,"byteStride":12,"target":34962},{"buffer":0,"byteLength":696,"byteOffset":13152,"byteStride":12,"target":34962},{"buffer":0,"byteLength":696,"byteOffset":13848,"byteStride":12,"target":34962},{"buffer":0,"byteLength":696,"byteOffset":14544,"byteStride":12,"target":34962},{"buffer":0,"byteLength":696,"byteOffset":15240,"byteStride":12,"target":34962},{"buffer":0,"byteLength":696,"byteOffset":15936,"byteStride":12,"target":34962},{"buffer":0,"byteLength":696,"byteOffset":16632,"byteStride":12,"target":34962},{"buffer":0,"byteLength":696,"byteOffset":17328,"byteStride":12,"target":34962},{"buffer":0,"byteLength":696,"byteOffset":18024,"byteStride":12,"target":34962},{"buffer":0,"byteLength":696,"byteOffset":18720,"byteStride":12,"target":34962},{"buffer":0,"byteLength":696,"byteOffset":19416,"byteStride":12,"target":34962},{"buffer":0,"byteLength":696,"byteOffset":20112,"byteStride":12,"target":34962},{"buffer":0,"byteLength":840,"byteOffset":20808,"byteStride":12,"target":34962},{"buffer":0,"byteLength":1120,"byteOffset":21648,"byteStride":16,"target":34962},{"buffer":0,"byteLength":840,"byteOffset":22768,"byteStride":12,"target":34962},{"buffer":0,"byteLength":560,"byteOffset":23608,"byteStride":8,"target":34962},{"buffer":0,"byteLength":324,"byteOffset":24168,"target":34963},{"buffer":0,"byteLength":840,"byteOffset":24492,"byteStride":12,"target":34962},{"buffer":0,"byteLength":840,"byteOffset":25332,"byteStride":12,"target":34962},{"buffer":0,"byteLength":840,"byteOffset":26172,"byteStride":12,"target":34962},{"buffer":0,"byteLength":840,"byteOffset":27012,"byteStride":12,"target":34962},{"buffer":0,"byteLength":840,"byteOffset":27852,"byteStride":12,"target":34962},{"buffer":0,"byteLength":840,"byteOffset":28692,"byteStride":12,"target":34962},{"buffer":0,"byteLength":840,"byteOffset":29532,"byteStride":12,"target":34962},{"buffer":0,"byteLength":840,"byteOffset":30372,"byteStride":12,"target":34962},{"buffer":0,"byteLength":840,"byteOffset":31212,"byteStride":12,"target":34962},{"buffer":0,"byteLength":840,"byteOffset":32052,"byteStride":12,"target":34962},{"buffer":0,"byteLength":840,"byteOffset":32892,"byteStride":12,"target":34962},{"buffer":0,"byteLength":840,"byteOffset":33732,"byteStride":12,"target":34962},{"buffer":0,"byteLength":840,"byteOffset":34572,"byteStride":12,"target":34962},{"buffer":0,"byteLength":840,"byteOffset":35412,"byteStride":12,"target":34962},{"buffer":0,"byteLength":840,"byteOffset":36252,"byteStride":12,"target":34962},{"buffer":0,"byteLength":840,"byteOffset":37092,"byteStride":12,"target":34962},{"buffer":0,"byteLength":840,"byteOffset":37932,"byteStride":12,"target":34962},{"buffer":0,"byteLength":840,"byteOffset":38772,"byteStride":12,"target":34962},{"buffer":0,"byteLength":840,"byteOffset":39612,"byteStride":12,"target":34962},{"buffer":0,"byteLength":840,"byteOffset":40452,"byteStride":12,"target":34962}],"buffers":[{"byteLength":41292,"uri":"realistic_oak_tree0.bin"}],"extensionsUsed":["GODOT_single_root"],"materials":[{"pbrMetallicRoughness":{"baseColorFactor":[0.05497172847390175,0.02451501041650772,0.0085403798148036,1.0],"metallicFactor":0.0,"roughnessFactor":0.8999999761581421}},{"pbrMetallicRoughness":{"baseColorFactor":[0.010022823698818684,0.059253524988889694,0.010022823698818684,1.0],"metallicFactor":0.0,"roughnessFactor":0.8799999952316284}},{"pbrMetallicRoughness":{"baseColorFactor":[0.03968190401792526,0.17064492404460907,0.027211777865886688,1.0],"metallicFactor":0.0,"roughnessFactor":0.800000011920929}}],"meshes":[{"primitives":[{"attributes":{"NORMAL":2,"POSITION":0,"TANGENT":1,"TEXCOORD_0":3},"indices":4,"material":0,"mode":4}]},{"primitives":[{"attributes":{"NORMAL":6,"POSITION":5,"TANGENT":1,"TEXCOORD_0":3},"indices":4,"material":0,"mode":4}]},{"primitives":[{"attributes":{"NORMAL":9,"POSITION":7,"TANGENT":8,"TEXCOORD_0":10},"indices":11,"material":0,"mode":4}]},{"primitives":[{"attributes":{"NORMAL":13,"POSITION":12,"TANGENT":8,"TEXCOORD_0":10},"indices":11,"material":0,"mode":4}]},{"primitives":[{"attributes":{"NORMAL":15,"POSITION":14,"TANGENT":8,"TEXCOORD_0":10},"indices":11,"material":0,"mode":4}]},{"primitives":[{"attributes":{"NORMAL":17,"POSITION":16,"TANGENT":8,"TEXCOORD_0":10},"indices":11,"material":0,"mode":4}]},{"primitives":[{"attributes":{"NORMAL":19,"POSITION":18,"TANGENT":8,"TEXCOORD_0":10},"indices":11,"material":0,"mode":4}]},{"primitives":[{"attributes":{"NORMAL":21,"POSITION":20,"TANGENT":8,"TEXCOORD_0":10},"indices":11,"material":0,"mode":4}]},{"primitives":[{"attributes":{"NORMAL":23,"POSITION":22,"TANGENT":8,"TEXCOORD_0":10},"indices":11,"material":0,"mode":4}]},{"primitives":[{"attributes":{"NORMAL":25,"POSITION":24,"TANGENT":8,"TEXCOORD_0":10},"indices":11,"material":0,"mode":4}]},{"primitives":[{"attributes":{"NORMAL":28,"POSITION":26,"TANGENT":27,"TEXCOORD_0":29},"indices":30,"material":1,"mode":4}]},{"primitives":[{"attributes":{"NORMAL":32,"POSITION":31,"TANGENT":27,"TEXCOORD_0":29},"indices":30,"material":2,"mode":4}]},{"primitives":[{"attributes":{"NORMAL":28,"POSITION":33,"TANGENT":27,"TEXCOORD_0":29},"indices":30,"material":1,"mode":4}]},{"primitives":[{"attributes":{"NORMAL":32,"POSITION":34,"TANGENT":27,"TEXCOORD_0":29},"indices":30,"material":2,"mode":4}]},{"primitives":[{"attributes":{"NORMAL":28,"POSITION":35,"TANGENT":27,"TEXCOORD_0":29},"indices":30,"material":1,"mode":4}]},{"primitives":[{"attributes":{"NORMAL":32,"POSITION":36,"TANGENT":27,"TEXCOORD_0":29},"indices":30,"material":2,"mode":4}]},{"primitives":[{"attributes":{"NORMAL":28,"POSITION":37,"TANGENT":27,"TEXCOORD_0":29},"indices":30,"material":1,"mode":4}]},{"primitives":[{"attributes":{"NORMAL":32,"POSITION":38,"TANGENT":27,"TEXCOORD_0":29},"indices":30,"material":2,"mode":4}]},{"primitives":[{"attributes":{"NORMAL":28,"POSITION":39,"TANGENT":27,"TEXCOORD_0":29},"indices":30,"material":1,"mode":4}]},{"primitives":[{"attributes":{"NORMAL":32,"POSITION":40,"TANGENT":27,"TEXCOORD_0":29},"indices":30,"material":2,"mode":4}]},{"primitives":[{"attributes":{"NORMAL":28,"POSITION":41,"TANGENT":27,"TEXCOORD_0":29},"indices":30,"material":1,"mode":4}]},{"primitives":[{"attributes":{"NORMAL":32,"POSITION":42,"TANGENT":27,"TEXCOORD_0":29},"indices":30,"material":2,"mode":4}]},{"primitives":[{"attributes":{"NORMAL":28,"POSITION":43,"TANGENT":27,"TEXCOORD_0":29},"indices":30,"material":1,"mode":4}]},{"primitives":[{"attributes":{"NORMAL":32,"POSITION":44,"TANGENT":27,"TEXCOORD_0":29},"indices":30,"material":2,"mode":4}]},{"primitives":[{"attributes":{"NORMAL":28,"POSITION":45,"TANGENT":27,"TEXCOORD_0":29},"indices":30,"material":1,"mode":4}]},{"primitives":[{"attributes":{"NORMAL":32,"POSITION":46,"TANGENT":27,"TEXCOORD_0":29},"indices":30,"material":2,"mode":4}]},{"primitives":[{"attributes":{"NORMAL":32,"POSITION":47,"TANGENT":27,"TEXCOORD_0":29},"indices":30,"material":1,"mode":4}]},{"primitives":[{"attributes":{"NORMAL":32,"POSITION":48,"TANGENT":27,"TEXCOORD_0":29},"indices":30,"material":2,"mode":4}]},{"primitives":[{"attributes":{"NORMAL":32,"POSITION":49,"TANGENT":27,"TEXCOORD_0":29},"indices":30,"material":2,"mode":4}]},{"primitives":[{"attributes":{"NORMAL":32,"POSITION":50,"TANGENT":27,"TEXCOORD_0":29},"indices":30,"material":2,"mode":4}]}],"nodes":[{"children":[1,2,3,4,5,6,7,8,9,10,11,12,13,14,15,16,17,18,19,20,21,22,23,24,25,26,27,28,29,30],"name":"RealisticOakTree"},{"mesh":0,"name":"root_flare","translation":[0.0,0.4000000059604645,0.0]},{"mesh":1,"name":"tapered_bark_trunk","translation":[0.0,2.5999999046325684,0.0]},{"mesh":2,"name":"natural_branch_00","rotation":[-0.28760623931884766,-0.6459742188453674,-0.28760623931884766,0.6459741592407227],"translation":[0.7958052158355713,3.1436686515808105,0.0]},{"mesh":3,"name":"natural_branch_01","rotation":[0.4136328101158142,-0.7066717147827148,-0.024799605831503868,0.5735049247741699],"translation":[-0.5756316781044006,3.4307026863098145,0.5273292064666748]},{"mesh":4,"name":"natural_branch_02","rotation":[-0.31907737255096436,-0.6509521007537842,0.2761545777320862,0.6310226917266846],"translation":[0.06686261296272278,3.7181599140167236,-0.7619215250015259]},{"mesh":5,"name":"natural_branch_03","rotation":[0.09921396523714066,-0.5703654289245605,-0.4179512560367584,0.7001118659973145],"translation":[0.4553556442260742,4.0060553550720215,0.5939188599586487]},{"mesh":6,"name":"natural_branch_04","rotation":[0.23161998391151428,-0.6021442413330078,0.3707052171230316,0.6680959463119507],"translation":[-0.7201161980628967,4.294403553009033,-0.12736880779266357]},{"mesh":7,"name":"natural_branch_05","rotation":[-0.442557692527771,-0.7058022022247314,-0.04293173924088478,0.551491379737854],"translation":[0.602073073387146,4.583219051361084,-0.383003294467926]},{"mesh":8,"name":"natural_branch_06","rotation":[0.37934285402297974,-0.6629369854927063,-0.24599704146385193,0.5967403054237366],"translation":[-0.18047326803207397,4.872517108917236,0.6714035272598267]},{"mesh":9,"name":"natural_branch_07","rotation":[-0.179035022854805,-0.5664273500442505,0.42327308654785156,0.684066116809845],"translation":[-0.31172600388526917,5.1623101234436035,-0.6001762747764587]},{"mesh":10,"name":"leaf_lo_00","scale":[1.149999976158142,1.0,1.149999976158142],"translation":[1.3996104001998901,3.787337064743042,0.30000001192092896]},{"mesh":11,"name":"leaf_hi_00","scale":[1.149999976158142,1.0,1.149999976158142],"translation":[1.3996104001998901,4.287337303161621,0.30000001192092896]},{"mesh":12,"name":"leaf_lo_01","scale":[1.149999976158142,1.0,1.149999976158142],"translation":[-0.7174985408782959,4.049405574798584,0.7299445271492004]},{"mesh":13,"name":"leaf_hi_01","scale":[1.149999976158142,1.0,1.149999976158142],"translation":[-0.7174985408782959,4.549405574798584,0.7299445271492004]},{"mesh":14,"name":"leaf_lo_02","scale":[1.149999976158142,1.0,1.149999976158142],"translation":[0.04153722524642944,4.312319755554199,-1.3805687427520752]},{"mesh":15,"name":"leaf_hi_02","scale":[1.149999976158142,1.0,1.149999976158142],"translation":[0.04153722524642944,4.812319755554199,-1.3805687427520752]},{"mesh":16,"name":"leaf_lo_03","scale":[1.149999976158142,1.0,1.149999976158142],"translation":[0.529287576675415,4.576110363006592,1.2973265647888184]},{"mesh":17,"name":"leaf_hi_03","scale":[1.149999976158142,1.0,1.149999976158142],"translation":[0.529287576675415,5.076110363006592,1.2973265647888184]},{"mesh":18,"name":"leaf_lo_04","scale":[1.149999976158142,1.0,1.149999976158142],"translation":[-1.131292700767517,4.8408074378967285,-0.5187662839889526]},{"mesh":19,"name":"leaf_hi_04","scale":[1.149999976158142,1.0,1.149999976158142],"translation":[-1.131292700767517,5.3408074378967285,-0.5187662839889526]},{"mesh":20,"name":"leaf_lo_05","scale":[1.149999976158142,1.0,1.149999976158142],"translation":[1.3120678663253784,5.106438636779785,-0.5372834205627441]},{"mesh":21,"name":"leaf_hi_05","scale":[1.149999976158142,1.0,1.149999976158142],"translation":[1.3120678663253784,5.606438636779785,-0.5372834205627441]},{"mesh":22,"name":"leaf_lo_06","scale":[1.149999976158142,1.0,1.149999976158142],"translation":[-0.5322826504707336,5.3730340003967285,1.2983523607254028]},{"mesh":23,"name":"leaf_hi_06","scale":[1.149999976158142,1.0,1.149999976158142],"translation":[-0.5322826504707336,5.8730340003967285,1.2983523607254028]},{"mesh":24,"name":"leaf_lo_07","scale":[1.149999976158142,1.0,1.149999976158142],"translation":[-0.7436258792877197,5.640620231628418,-1.351931095123291]},{"mesh":25,"name":"leaf_hi_07","scale":[1.149999976158142,1.0,1.149999976158142],"translation":[-0.7436258792877197,6.140620231628418,-1.351931095123291]},{"mesh":26,"name":"crown_00","scale":[1.149999976158142,1.0,1.149999976158142],"translation":[0.0,5.099999904632568,0.5]},{"mesh":27,"name":"crown_01","scale":[1.149999976158142,1.0,1.149999976158142],"translation":[0.4546487033367157,5.650000095367432,-0.2080734223127365]},{"mesh":28,"name":"crown_02","scale":[1.149999976158142,1.0,1.149999976158142],"translation":[-0.3784012496471405,6.199999809265137,-0.32682180404663086]},{"mesh":29,"name":"crown_03","scale":[1.149999976158142,1.0,1.149999976158142],"translation":[-0.1397077441215515,6.75,0.4800851345062256]}],"scene":0,"scenes":[{"nodes":[0]}]}