{
	"asset": {
		"generator": "Khronos glTF Blender I/O v5.1.20",
		"version": "2.0"
	},
	"scene": 0,
	"scenes": [
		{
			"name": "Scene",
			"nodes": [
				0,
				1,
				2
			]
		}
	],
	"nodes": [
		{
			"mesh": 0,
			"name": "StartLineAsset",
			"rotation": [
				0,
				0.40256980061531067,
				0,
				0.9153892993927002
			],
			"translation": [
				-46.25364303588867,
				0.43416160345077515,
				48.705543518066406
			]
		},
		{
			"mesh": 1,
			"name": "StartPostLeftAsset",
			"translation": [
				-51.086151123046875,
				1.9538673162460327,
				53.9752082824707
			]
		},
		{
			"mesh": 2,
			"name": "StartPostRightAsset",
			"translation": [
				-41.42113494873047,
				1.5038965940475464,
				43.43587875366211
			]
		}
	],
	"materials": [
		{
			"doubleSided": true,
			"name": "chalk white start line",
			"pbrMetallicRoughness": {
				"baseColorFactor": [
					0.65,
					0.6,
					0.45,
					1
				],
				"metallicFactor": 0,
				"roughnessFactor": 0.949999988079071
			}
		},
		{
			"doubleSided": true,
			"name": "wood start posts",
			"pbrMetallicRoughness": {
				"baseColorFactor": [
					0.12,
					0.055,
					0.02,
					1
				],
				"metallicFactor": 0,
				"roughnessFactor": 0.949999988079071
			}
		}
	],
	"meshes": [
		{
			"name": "Cube.001",
			"primitives": [
				{
					"attributes": {
						"POSITION": 0,
						"NORMAL": 1,
						"TEXCOORD_0": 2
					},
					"indices": 3,
					"material": 0
				}
			]
		},
		{
			"name": "Cube.002",
			"primitives": [
				{
					"attributes": {
						"POSITION": 4,
						"NORMAL": 5,
						"TEXCOORD_0": 6
					},
					"indices": 3,
					"material": 1
				}
			]
		},
		{
			"name": "Cube.003",
			"primitives": [
				{
					"attributes": {
						"POSITION": 7,
						"NORMAL": 8,
						"TEXCOORD_0": 9
					},
					"indices": 3,
					"material": 1
				}
			]
		}
	],
	"accessors": [
		{
			"bufferView": 0,
			"componentType": 5126,
			"count": 24,
			"max": [
				6.5,
				0.03999999910593033,
				0.5
			],
			"min": [
				-6.5,
				-0.03999999910593033,
				-0.5
			],
			"type": "VEC3"
		},
		{
			"bufferView": 1,
			"componentType": 5126,
			"count": 24,
			"type": "VEC3"
		},
		{
			"bufferView": 2,
			"componentType": 5126,
			"count": 24,
			"type": "VEC2"
		},
		{
			"bufferView": 3,
			"componentType": 5123,
			"count": 36,
			"type": "SCALAR"
		},
		{
			"bufferView": 4,
			"componentType": 5126,
			"count": 24,
			"max": [
				0.22499999403953552,
				1.600000023841858,
				0.22499999403953552
			],
			"min": [
				-0.22499999403953552,
				-1.600000023841858,
				-0.22499999403953552
			],
			"type": "VEC3"
		},
		{
			"bufferView": 5,
			"componentType": 5126,
			"count": 24,
			"type": "VEC3"
		},
		{
			"bufferView": 6,
			"componentType": 5126,
			"count": 24,
			"type": "VEC2"
		},
		{
			"bufferView": 7,
			"componentType": 5126,
			"count": 24,
			"max": [
				0.22499999403953552,
				1.600000023841858,
				0.22499999403953552
			],
			"min": [
				-0.22499999403953552,
				-1.600000023841858,
				-0.22499999403953552
			],
			"type": "VEC3"
		},
		{
			"bufferView": 8,
			"componentType": 5126,
			"count": 24,
			"type": "VEC3"
		},
		{
			"bufferView": 9,
			"componentType": 5126,
			"count": 24,
			"type": "VEC2"
		}
	],
	"bufferViews": [
		{
			"buffer": 0,
			"byteLength": 288,
			"byteOffset": 0,
			"target": 34962
		},
		{
			"buffer": 0,
			"byteLength": 288,
			"byteOffset": 288,
			"target": 34962
		},
		{
			"buffer": 0,
			"byteLength": 192,
			"byteOffset": 576,
			"target": 34962
		},
		{
			"buffer": 0,
			"byteLength": 72,
			"byteOffset": 768,
			"target": 34963
		},
		{
			"buffer": 0,
			"byteLength": 288,
			"byteOffset": 840,
			"target": 34962
		},
		{
			"buffer": 0,
			"byteLength": 288,
			"byteOffset": 1128,
			"target": 34962
		},
		{
			"buffer": 0,
			"byteLength": 192,
			"byteOffset": 1416,
			"target": 34962
		},
		{
			"buffer": 0,
			"byteLength": 288,
			"byteOffset": 1608,
			"target": 34962
		},
		{
			"buffer": 0,
			"byteLength": 288,
			"byteOffset": 1896,
			"target": 34962
		},
		{
			"buffer": 0,
			"byteLength": 192,
			"byteOffset": 2184,
			"target": 34962
		}
	],
	"buffers": [
		{
			"byteLength": 2376,
			"uri": "start_marker.bin"
		}
	]
}