{"accessors":[{"bufferView":0,"componentType":5126,"count":2210,"max":[0.4994336664676666,0.5,0.4994336664676666],"min":[-0.4994336664676666,-0.5,-0.4994336664676666],"normalized":false,"type":"VEC3"},{"bufferView":1,"componentType":5126,"count":2210,"max":[1.0,0.0,1.0,1.0],"min":[-1.0,-2.157951530534774e-05,-1.0,1.0],"normalized":false,"type":"VEC4"},{"bufferView":2,"componentType":5126,"count":2210,"max":[0.9988680481910706,1.0,0.9988680481910706],"min":[-0.9988688230514526,-1.0,-0.9988672137260437],"normalized":false,"type":"VEC3"},{"bufferView":3,"componentType":5126,"count":2210,"max":[1.0,1.0],"min":[0.0,0.0],"normalized":false,"type":"VEC2"},{"bufferView":4,"componentType":5123,"count":12672,"max":[2209],"min":[0],"normalized":false,"type":"SCALAR"}],"asset":{"generator":"Godot Engine v4.6.3.stable.arch_linux@35e80b3a8822a9df9be390814b62f44c0a9c69e8","version":"2.0"},"bufferViews":[{"buffer":0,"byteLength":26520,"byteStride":12,"target":34962},{"buffer":0,"byteLength":35360,"byteOffset":26520,"byteStride":16,"target":34962},{"buffer":0,"byteLength":26520,"byteOffset":61880,"byteStride":12,"target":34962},{"buffer":0,"byteLength":17680,"byteOffset":88400,"byteStride":8,"target":34962},{"buffer":0,"byteLength":25344,"byteOffset":106080,"target":34963}],"buffers":[{"byteLength":131424,"uri":"test_export_tree0.bin"}],"extensionsUsed":["GODOT_single_root"],"meshes":[{"primitives":[{"attributes":{"NORMAL":2,"POSITION":0,"TANGENT":1,"TEXCOORD_0":3},"indices":4,"mode":4}]}],"nodes":[{"children":[1]},{"mesh":0,"name":"_MeshInstance3D_2"}],"scene":0,"scenes":[{"nodes":[0]}]}